<!DOCTYPE svg PUBLIC "-//W3C//DTD SVG 20010904//EN" "http://www.w3.org/TR/2001/REC-SVG-20010904/DTD/svg10.dtd">
<svg version="1.0" xmlns="http://www.w3.org/2000/svg" width="582px" height="408px" viewBox="0 0 5820 4080" preserveAspectRatio="xMidYMid meet">
<g id="layer1" fill="#000000" stroke="none">
 <path d="M2230 3734 c-256 -7 -676 -27 -935 -44 l-469 -30 -164 -62 -163 -61 -30 -58 c-40 -80 -40 -148 1 -229 35 -69 37 -70 115 -91 l60 -15 -4 -220 c-2 -120 -7 -264 -10 -319 l-6 -99 -45 -13 c-25 -8 -66 -32 -94 -56 l-48 -43 7 -82 7 -81 66 -37 c63 -35 68 -36 137 -31 52 5 76 3 83 -6 7 -8 -15 -101 -70 -297 -78 -282 -79 -286 -73 -372 l6 -87 -38 -10 c-21 -5 -59 -15 -85 -21 -38 -10 -54 -22 -91 -68 -44 -54 -46 -57 -52 -146 -6 -78 -4 -102 15 -166 12 -41 30 -83 39 -92 17 -17 135 -68 158 -68 7 0 57 22 111 49 94 48 98 52 141 121 l43 71 -12 102 c-6 56 -13 109 -16 117 -2 9 49 81 122 170 104 129 142 168 227 232 95 72 108 79 195 100 l93 22 64 -34 64 -35 91 -195 90 -195 25 -235 24 -235 -36 -80 c-28 -62 -38 -101 -46 -176 l-10 -97 29 -47 c24 -40 41 -53 102 -81 63 -29 84 -34 150 -34 77 0 77 0 134 47 49 39 61 56 84 116 l27 71 -22 93 -23 93 -69 37 -69 38 0 105 c0 101 2 112 55 270 54 160 58 169 150 299 130 184 118 173 184 165 61 -7 55 -3 294 -226 l78 -73 94 -242 c52 -134 95 -246 95 -251 0 -4 -29 -47 -65 -96 l-65 -88 0 -95 0 -95 50 -58 c49 -56 53 -58 139 -80 82 -20 96 -21 168 -9 134 21 123 6 123 173 l0 144 -85 73 -85 73 0 160 0 161 64 213 c36 118 66 215 68 216 52 37 189 116 199 115 8 0 82 -35 166 -77 l152 -77 146 -207 c80 -114 145 -212 145 -217 0 -5 -18 -48 -39 -95 -22 -47 -45 -113 -52 -147 -12 -60 -11 -62 22 -130 32 -68 36 -72 120 -119 90 -52 102 -55 208 -44 61 7 61 7 116 74 l55 67 0 80 c0 78 -1 81 -42 136 -35 46 -79 84 -175 151 -1 1 -13 71 -27 156 l-25 155 35 139 c27 109 41 146 66 177 17 21 36 39 42 39 5 0 71 -23 146 -50 l135 -50 176 -223 c96 -122 178 -227 181 -232 4 -6 11 -46 17 -89 9 -60 20 -92 46 -137 l35 -57 75 -18 75 -18 80 39 c77 38 81 41 131 122 l51 84 -7 77 c-7 80 -44 172 -68 172 -66 2 -213 22 -224 32 -8 7 -57 96 -109 200 -92 184 -94 190 -153 425 -33 130 -57 241 -55 245 3 4 18 8 34 8 16 0 53 11 83 23 43 20 56 32 71 65 26 58 16 171 -21 224 -25 37 -43 45 -163 75 -32 8 -36 13 -43 59 -5 27 -25 130 -44 229 -52 256 -51 241 -14 248 26 5 36 17 62 70 31 62 31 64 20 133 -9 53 -19 78 -44 107 -29 34 -43 41 -142 67 -72 20 -217 44 -420 70 -303 39 -322 40 -860 55 -622 17 -621 17 -1255 -1z"/>
 </g>

</svg>