<?xml version="1.0" encoding="UTF-8" standalone="no"?>
<!-- Created with Inkscape (http://www.inkscape.org/) -->

<svg
   xmlns:dc="http://purl.org/dc/elements/1.1/"
   xmlns:cc="http://creativecommons.org/ns#"
   xmlns:rdf="http://www.w3.org/1999/02/22-rdf-syntax-ns#"
   xmlns:svg="http://www.w3.org/2000/svg"
   xmlns="http://www.w3.org/2000/svg"
   xmlns:sodipodi="http://sodipodi.sourceforge.net/DTD/sodipodi-0.dtd"
   xmlns:inkscape="http://www.inkscape.org/namespaces/inkscape"
   id="svg4161"
   version="1.1"
   inkscape:version="0.91 r13725"
   width="266.25"
   height="1155"
   viewBox="0 0 266.25 1155"
   sodipodi:docname="Sword2Silhouette.svg">
  <metadata
     id="metadata4167">
    <rdf:RDF>
      <cc:Work
         rdf:about="">
        <dc:format>image/svg+xml</dc:format>
        <dc:type
           rdf:resource="http://purl.org/dc/dcmitype/StillImage" />
        <dc:title></dc:title>
      </cc:Work>
    </rdf:RDF>
  </metadata>
  <defs
     id="defs4165" />
  <sodipodi:namedview
     pagecolor="#ffffff"
     bordercolor="#666666"
     borderopacity="1"
     objecttolerance="10"
     gridtolerance="10"
     guidetolerance="10"
     inkscape:pageopacity="0"
     inkscape:pageshadow="2"
     inkscape:window-width="1600"
     inkscape:window-height="837"
     id="namedview4163"
     showgrid="false"
     inkscape:zoom="0.58008658"
     inkscape:cx="133.125"
     inkscape:cy="577.5"
     inkscape:window-x="-8"
     inkscape:window-y="-8"
     inkscape:window-maximized="1"
     inkscape:current-layer="svg4161" />
  <path
     style="fill:#000000"
     d="m 129.84375,1154.5507 c -0.51563,-0.1555 -3.9907,-1.2004 -7.7224,-2.3222 -3.73169,-1.1218 -7.10669,-2.6076 -7.5,-3.3017 -0.3933,-0.6941 -2.30069,-2.9721 -4.23864,-5.0621 -5.01981,-5.4138 -13.381479,-24.7155 -14.670457,-33.8647 -0.544837,-3.8672 -1.489312,-10.4062 -2.098836,-14.5312 C 92.004581,1084.5809 91.3388,1026.2361 91.875,943.125 c 0.257812,-39.96094 0.257812,-78.5625 0,-85.78125 -0.380938,-10.66627 0.347809,-142.04323 0.806048,-145.3125 0.07227,-0.51563 -0.06667,-87.42188 -0.308741,-193.125 C 92.130227,413.20312 91.9193,318.87386 91.903581,309.28567 L 91.875,291.85257 75.428243,291.21064 c -9.045716,-0.35307 -19.69806,-1.12738 -23.671875,-1.72071 -9.936836,-1.48366 -13.748112,-1.29461 -20.77266,1.03035 -9.647911,3.19325 -18.31878,3.68604 -19.692518,1.11919 -1.9545722,-3.65215 -0.878925,-5.90129 3.52131,-7.36291 2.217188,-0.73648 3.904688,-1.68214 3.75,-2.10144 C 18.101242,280.92477 7.2652031,272.8125 6.0563133,272.8125 3.9195124,272.8125 0,268.91876 0,266.79601 c 0,-4.83684 4.8074439,-6.25481 14.006739,-4.13136 4.386944,1.01263 4.998533,0.93672 7.529421,-0.93444 2.416404,-1.78652 3.882154,-2.0233 11.937364,-1.92837 9.940353,0.11715 13.418849,-0.78386 17.293158,-4.47932 3.578044,-3.41288 8.20269,-1.02498 10.342048,5.34004 0.314017,0.93426 47.03392,1.38596 48.51748,0.46907 0.4687,-0.28967 0.84667,-22.35905 0.86373,-50.43272 0.0289,-47.54986 0.84767,-128.968766 1.31938,-131.196868 0.75832,-3.581944 -4.91492,-4.015281 -7.7375,-0.59101 -5.993861,7.271596 -19.471108,7.265396 -25.878189,-0.01191 -12.26088,-13.926174 -6.469206,-40.909221 10.701855,-49.859279 2.084114,-1.086301 4.318879,-2.613198 4.966142,-3.393103 1.618031,-1.949609 9.035162,-5.588747 13.013372,-6.384876 11.87021,-2.375495 14.19058,-3.467714 15.91539,-7.491541 6.67506,-15.5722774 29.10255,-15.7687524 33.61488,-0.294482 1.28629,4.411082 2.63232,5.358062 7.65723,5.387092 2.44094,0.0141 13.49074,4.868563 15.9375,7.001756 0.77344,0.674317 2.44465,1.543604 3.71382,1.931749 4.54466,1.389882 12.20366,11.925325 14.15069,19.465193 0.42888,1.660787 1.21811,4.707114 1.75385,6.769614 5.31986,20.480353 -19.88662,42.719456 -31.67456,27.945749 -7.41126,-9.288437 -7.5881,-7.910989 -7.67292,59.766132 -0.041,32.71159 -0.0894,60.10843 -0.1077,60.88187 -0.3463,14.68666 1.3562,59.59039 2.28154,60.17599 0.63196,0.39993 10.76441,0.58704 22.51654,0.41579 l 21.36752,-0.31137 3.13392,-3.42146 c 4.50123,-4.91419 7.2062,-4.64348 12.63795,1.26478 l 4.30828,4.68624 12.65491,-0.39874 c 9.79033,-0.30848 13.89308,-0.84733 18.12482,-2.3805 13.43003,-4.86572 12.68961,3.76527 -1.12766,13.14509 -5.67503,3.85248 -5.63162,4.84004 0.26033,5.92318 16.91236,3.10909 2.58999,11.53336 -15.5126,9.12435 -6.67797,-0.88866 -8.6488,-0.83269 -11.97265,0.34002 -2.18835,0.7721 -4.89591,1.41974 -6.01682,1.4392 -4.61103,0.0801 -43.30079,1.63924 -43.45372,1.75115 -2.28891,1.67509 -3.18625,7.46302 -3.21298,20.72419 -0.0161,8.00434 -0.19466,24.88928 -0.3967,37.52209 -1.1313,70.73683 -1.5948,109.80347 -1.84636,155.625 -0.15428,28.10156 -0.52461,63.53906 -0.82295,78.75 -0.29835,15.21094 -0.53512,31.45312 -0.52616,36.09375 0.0679,35.13276 -0.87724,206.34552 -1.33261,241.40625 -0.66297,51.04432 -1.55456,83.35584 -2.49636,90.46875 -0.4779,3.60937 -1.10676,25.125 -1.39745,47.81245 -0.71506,55.8088 -2.67334,95.7191 -5.10604,104.0625 -0.45103,1.5469 -1.08358,4.5 -1.40568,6.5625 -2.01701,12.9153 -9.7016,29.6691 -16.44725,35.8581 -4.57406,4.1966 -12.16082,8.0008 -14.53125,7.2864 z"
     id="path4171"
     inkscape:connector-curvature="0" />
</svg>
